<svg aria-hidden="true" style="position:absolute" width="0" height="0" overflow="hidden" xmlns="http://www.w3.org/2000/svg"><defs><symbol id="icecream-logo" viewBox="0 0 199 50"><ellipse cx="25" cy="25.5" rx="24" ry="24.5" fill="#fff"/><path d="M18.514.877C6.943 4.381 0 13.492 0 25.005c0 9.41 4.83 17.62 12.779 21.725 4.125 2.102 4.73.6.905-2.303-2.716-2.202-3.22-3.203-3.22-6.908 0-2.603-.603-4.705-1.509-5.506-1.81-1.502-2.012-5.406-.2-6.808.703-.6 1.408-2.603 1.508-4.405.504-6.607 7.648-12.814 14.792-12.814S39.343 14.193 39.846 20.8c.1 1.802.805 3.805 1.51 4.405 1.81 1.402 1.61 5.306-.202 6.808-.905.801-1.51 2.903-1.51 5.506 0 3.705-.502 4.706-3.219 6.908-4.226 3.304-3.019 4.505 1.71 1.602 6.642-4.105 11.572-13.015 11.572-20.924 0-15.818-16.502-28.633-31.193-24.228Z" fill="#D41443"/><path d="M19.823 12.49c-1.812.802-3.321 1.803-3.321 2.403 0 1.102 5.434 3.104 8.553 3.104 3.12 0 8.553-2.002 8.553-3.104 0-1.2-6.239-3.904-8.754-3.904-1.007.1-3.321.7-5.031 1.502ZM71.642 17.697c-1.509.4-1.81 1.702-1.81 8.91v8.41h7.143l-.301-8.71c-.302-9.11-.705-9.812-5.032-8.61ZM83.415 18.197c-3.32 1.803-4.528 4.005-4.528 8.31 0 5.907 3.22 8.71 9.157 8.31 4.025-.3 4.427-.601 4.729-3.104.302-2.503.1-2.703-3.019-2.503-3.22.3-3.32.1-3.32-3.204 0-3.303.201-3.504 3.12-3.203 2.414.2 3.32-.2 3.722-1.702.201-1.001 0-2.403-.604-3.004-1.408-1.401-6.64-1.401-9.257.1ZM95.39 18.297c-.303.801-.403 4.706-.202 8.81l.302 7.409h6.54c6.038 0 6.541-.2 6.842-2.303.302-1.902-.1-2.202-3.219-2.202-2.013 0-3.623-.5-3.623-1.001 0-.601 1.409-1.002 3.019-1.002 2.314 0 3.019-.4 3.019-2.002 0-1.602-.705-2.002-3.019-2.002-1.61 0-3.019-.5-3.019-1.001 0-.601 1.308-1.002 2.918-1.002 2.818 0 4.729-2.202 3.522-4.104-.906-1.502-12.477-1.101-13.08.4ZM115.614 17.997c-3.32 1.302-4.628 3.604-4.729 7.809-.101 7.208 2.817 9.711 10.364 9.01 2.918-.2 3.421-.7 3.421-2.803 0-2.202-.402-2.503-3.22-2.202-2.415.2-3.32-.1-3.823-1.702-.906-3.104 1.006-5.607 4.226-5.607 1.912 0 2.918-.6 3.119-1.902.704-3.204-4.427-4.705-9.358-2.603ZM127.991 17.597c-.504.4-.805 4.505-.805 9.11v8.41l3.219-.3c2.516-.2 3.422-.902 3.925-2.804l.603-2.503.805 2.703c.604 2.303 1.308 2.804 3.925 2.804 4.326 0 4.829-.701 3.018-4.205-1.107-2.203-1.308-3.304-.503-4.105 1.308-1.301 1.409-5.707.201-7.609-1.006-1.601-13.08-2.903-14.388-1.501Zm8.25 5.406c0 1.101-.402 2.002-1.006 2.002-.503 0-1.006-.9-1.006-2.002 0-1.101.503-2.003 1.006-2.003.604 0 1.006.902 1.006 2.003ZM146.002 17.697c-.403.3-.704 4.405-.704 9.01v8.31h6.54c6.339 0 6.54-.1 6.54-2.503 0-2.103-.503-2.503-3.018-2.503-1.61 0-3.019-.5-3.019-1.001 0-.601 1.107-1.001 2.516-1.001 1.811 0 2.515-.501 2.515-2.003 0-1.501-.704-2.002-2.515-2.002-1.409 0-2.516-.5-2.516-1.001 0-.6 1.409-1.001 3.019-1.001 2.515 0 3.018-.4 3.018-2.503 0-2.403-.301-2.503-5.836-2.503-3.22 0-6.238.3-6.54.7ZM166.328 17.597c-1.812.5-6.44 13.816-5.535 16.018.805 2.002 5.333 1.802 6.541-.3.905-1.702 1.006-1.702 2.817 0 2.315 2.002 7.346 2.303 7.346.4 0-.6-1.007-4.605-2.315-8.71-2.012-6.607-2.616-7.508-4.729-7.708-1.409 0-3.22.1-4.125.3Zm2.817 9.11c-.302 1.001-.503.4-.503-1.201 0-1.702.201-2.403.503-1.802.201.7.201 2.102 0 3.003ZM180.817 17.697c-.906.3-1.308 3.103-1.308 8.91v8.41h2.918c2.515 0 3.018-.501 3.421-2.804.402-2.603.402-2.603 1.207-.5.403 1.301 1.409 2.303 2.113 2.303.805 0 1.912-1.002 2.415-2.303.805-2.103.906-2.103.906.6.101 2.503.402 2.804 3.22 2.503l3.119-.3.101-8.31c.201-7.708.1-8.309-2.013-8.81-3.22-.8-5.936 1.102-6.842 4.806l-.704 3.304-1.107-3.504c-1.409-4.706-3.522-5.907-7.446-4.305ZM14.087 18.698c-.302.4-.604 1.702-.604 3.003 0 2.303.1 2.303 11.572 2.303 11.47 0 11.571 0 11.571-2.303 0-3.404-.905-3.804-4.125-2.202-3.623 1.902-11.27 1.902-14.892 0-1.61-.801-3.12-1.101-3.522-.801ZM11.169 27.608c-1.61 1.702 1.107 2.403 8.955 2.403h8.452v3.504c0 1.902.503 3.504 1.007 3.504.603 0 1.006-1.502 1.006-3.404 0-3.304.201-3.504 4.025-3.805 2.213-.2 4.025-.8 4.025-1.3 0-1.102-26.363-2.003-27.47-.902Z" fill="#D41443"/><path d="M13.483 36.418c0 5.506 1.912 6.608 11.572 6.608s11.571-1.102 11.571-6.608c0-2.403-.503-3.404-1.51-3.404-.905 0-1.508.901-1.508 2.403 0 5.606-7.648 6.107-8.755.6-.503-2.903-.805-3.003-5.936-3.003h-5.434v3.404ZM19.722 47.731c.604 3.204 10.867 2.904 10.867-.2 0-1.101-1.308-1.502-5.635-1.502-4.729 0-5.534.3-5.232 1.702Z" fill="#D41443"/></symbol><symbol id="burguer" viewBox="0 0 20 14"><path d="M0 1h20M0 7h20M0 13h20"/></symbol><symbol id="close-button" viewBox="0 0 16 16"><path d="m1.26 1 13.48 14M1 14.74 15 1.26"/></symbol><symbol id="point" viewBox="0 0 30 30"><circle cx="15" cy="15" r="15"/></symbol><symbol id="right-arrow" viewBox="0 0 15 15"><path d="M8.293 2.293a1 1 0 0 1 1.414 0l4.5 4.5a1 1 0 0 1 0 1.414l-4.5 4.5a1 1 0 0 1-1.414-1.414L11 8.5H1.5a1 1 0 0 1 0-2H11L8.293 3.707a1 1 0 0 1 0-1.414Z"/></symbol><symbol id="three-points" viewBox="0 0 26 6"><circle cx="13" cy="3" r="3"/><circle cx="3" cy="3" r="3"/><circle cx="23" cy="3" r="3"/></symbol><symbol id="milk" viewBox="0 0 33 50"><path d="M3.645.225c-.546.293-.863.879-.863 1.572.01 1.27.326 2.432.96 3.437l.278.46-.528.595c-.595.664-.739.908-1.007 1.7-.221.644-.24 1.816-.048 2.47.671 2.246 2.897 3.545 5.074 2.969.739-.196 1.19-.44 1.88-1.026l.586-.488.547.274c.307.156.825.38 1.16.507l.595.215v1.094c0 1.728.355 2.754 1.266 3.682.912.927 2.341 1.406 3.579 1.191.882-.156 1.745-.596 2.33-1.191.912-.928 1.267-1.954 1.267-3.682V12.91l.604-.215c.326-.127.845-.351 1.152-.508l.546-.273.585.488c.691.586 1.142.83 1.88 1.026 2.178.576 4.404-.723 5.075-2.969.192-.654.173-1.826-.048-2.47-.268-.792-.412-1.036-1.007-1.7l-.527-.596.278-.459c.633-1.005.95-2.168.96-3.437 0-.693-.318-1.28-.864-1.572L28.942 0H4.058l-.413.225ZM26.67 3.28c0 .03-.279.489-.624 1.035-1.017 1.612-.978 1.963.374 3.39.49.517.94 1.034 1.008 1.151.364.723-.365 1.622-1.17 1.436-.193-.04-.615-.38-1.229-.986-1.228-1.211-1.65-1.348-2.59-.81-1.084.624-2.465 1.259-3.137 1.444-.95.274-1.276.479-1.525.996-.201.4-.22.567-.22 2.13 0 1.923-.078 2.236-.624 2.5-.394.195-.47.195-.864 0-.547-.264-.623-.577-.623-2.5 0-1.563-.02-1.73-.211-2.13-.26-.507-.585-.722-1.535-.996-.825-.234-2.043-.771-2.715-1.21-.633-.41-1.19-.567-1.63-.489-.289.059-.576.283-1.344 1.035-.633.616-1.084.977-1.276 1.016-.796.186-1.525-.723-1.16-1.436.067-.117.518-.634 1.007-1.152 1.352-1.426 1.39-1.777.374-3.389-.345-.546-.624-1.005-.624-1.035 0-.039 4.576-.058 10.169-.058 5.593 0 10.169.02 10.169.058ZM.758 20.635c-.49.332-.758.8-.758 1.318 0 .352 4.873 26.445 5.046 26.992.086.303.441.664.815.86C6.216 50 6.466 50 16.5 50c10.034 0 10.284 0 10.639-.195.374-.196.729-.557.815-.86.173-.547 5.046-26.64 5.046-26.992 0-.517-.269-.986-.758-1.318l-.326-.225H1.084l-.326.225Zm28.453 3.554c-.096.782-.653 2.48-1.065 3.252-2.005 3.711-5.804 5.967-10.514 6.23-3.559.206-6.571-.517-9.094-2.177a10.954 10.954 0 0 1-3.54-3.808c-.48-.85-1.113-2.676-1.209-3.497l-.067-.556h25.556l-.067.556ZM6.859 34.248c4.115 2.774 10.264 3.506 15.445 1.826 1.727-.556 3.492-1.494 4.969-2.636.432-.342.46-.342.413-.128-.03.127-.595 3.116-1.257 6.631-.662 3.516-1.218 6.494-1.247 6.612l-.048.224H7.866l-.048-.224c-.028-.117-.585-3.096-1.247-6.612-.662-3.515-1.228-6.504-1.256-6.63-.048-.215-.02-.215.412.127.25.195.767.556 1.132.81Z"/></symbol><symbol id="fruits" viewBox="0 0 50 50"><path d="M46.29 33.454c-2.018-.716-3.72-.537-5.065.028.226-1.37.735-2.862 1.827-3.876a1.664 1.664 0 1 0-2.263-2.44c-1.92 1.782-2.665 4.295-2.928 6.377a6.339 6.339 0 0 0-1.653-.486l2.953-15.359a1.663 1.663 0 0 0-1.633-1.978h-.32c.147-.782.221-1.558.215-2.297-.025-3.115-1.411-5.461-3.709-6.276-2.202-.782-4.046-.547-5.48.103.228-1.525.773-3.224 2.003-4.366a1.664 1.664 0 1 0-2.263-2.44c-2.063 1.915-2.836 4.634-3.096 6.854-1.149-.543-2.569-.822-4.233-.516-1.71-2.455-4.082-3.586-6.39-3.033-2.267.544-3.684 1.742-4.532 3.065-.64-1.405-1.112-3.127-.706-4.743a1.664 1.664 0 0 0-3.227-.812c-.686 2.728.148 5.43 1.14 7.434-1.588.215-3.309 1.015-4.764 2.916-.903 1.18-1.208 2.653-.931 4.218a1.663 1.663 0 0 0-1.052 1.871L6.134 48.65c.15.784.836 1.35 1.634 1.35h23.808c.797 0 1.483-.566 1.634-1.35l.058-.304c.449.309.93.568 1.448.76 1.979.737 3.823.435 4.756.185.494.132 1.242.279 2.131.279.791 0 1.693-.117 2.625-.464 3.688-1.374 5.648-5.999 5.618-9.653-.023-2.975-1.352-5.218-3.555-5.999ZM35.43 19.048c-.767 7.352-6.957 12.358-15.58 12.358-8.623 0-14.814-5.006-15.58-12.358h31.16ZM25.05 11.742c.288.545.838.886 1.454.886.617 0 1.166-.341 1.454-.886a4.113 4.113 0 0 1 1.202-1.214c.983-.637 2.109-.718 3.442-.245 1.329.471 1.487 2.372 1.493 3.167.006.724-.1 1.502-.297 2.27H22.663c.368-1.859.147-3.894-.452-5.733a3.306 3.306 0 0 1 1.636.541 4.116 4.116 0 0 1 1.202 1.214Zm-20.242 1.89c.86-1.123 1.848-1.67 3.02-1.67h.003c.891 0 1.588.324 1.666.362.533.296 1.17.269 1.685-.058.518-.33.797-.925.752-1.536-.009-.12-.18-2.959 3.099-3.746 1.37-.33 2.54 1.178 2.978 1.84 1.262 1.908 1.909 4.857 1.214 6.896H4.618c-.22-.692-.28-1.474.19-2.088Zm4.335 33.04L5.845 29.52c.216.207.438.41.668.607 3.45 2.971 8.186 4.607 13.336 4.607s9.887-1.636 13.336-4.607c.08-.069.16-.14.238-.21l-.674 3.505c-.032.01-.063.02-.095.032-2.204.782-3.533 3.024-3.556 5.999-.015 1.82.464 3.88 1.403 5.659l-.3 1.56H9.143Zm33.923-.684c-1.474.549-2.939.027-2.993.007a1.63 1.63 0 0 0-1.2 0c-.015.006-1.5.55-2.995-.007-2.09-.779-3.473-3.994-3.453-6.509.006-.727.148-2.466 1.341-2.889a4.381 4.381 0 0 1 1.467-.273c1.73 0 2.59 1.269 2.785 1.6.287.547.836.89 1.454.89s1.168-.343 1.455-.89c.244-.414 1.526-2.293 4.252-1.327 1.192.423 1.334 2.161 1.34 2.89.02 2.514-1.363 5.73-3.453 6.508Z"/></symbol><symbol id="lollipop" viewBox="0 0 160 160"><path d="M80 23S65 10 48 9C30 9 16 23 15 42c-2 20 6 49 65 74 0 0 67-23 65-74 0 0-2-32-33-33 0 0-11-2-32 14zM73 112v47M87 112v47" fill="none" stroke-width="10"/><path d="M20 25s14-2 30 9 17 13 33 20c0 0 4 2 4 6v26s-1 4 7 4c0 0 6 2 7-4V64s1-6 6-6c6 0 20 0 38-10" fill="none" stroke-width="10"/></symbol><symbol id="quotes" viewBox="0 0 54 40"><path d="M40.018 0c2.41 0 4.687.65 6.83 1.951 2.143 1.301 3.884 3.171 5.223 5.61C53.357 10 54 12.873 54 16.179s-.804 6.531-2.41 9.675c-.536 1.138-1.5 2.601-2.894 4.39-1.446 1.788-2.785 3.333-4.017 4.634L39.616 40 36 33.984a27.548 27.548 0 0 0 6.67-5.854c1.928-2.276 2.892-4.363 2.892-6.26 0-.976-.214-1.762-.642-2.358-1.875 1.355-3.965 2.033-6.268 2.033-1.66 0-3.241-.515-4.741-1.545a10.708 10.708 0 0 1-3.697-3.902c-.964-1.572-1.446-3.198-1.446-4.878 0-1.898.562-3.713 1.687-5.448a12.784 12.784 0 0 1 4.26-4.227C36.428.515 38.195 0 40.017 0ZM11.17 0c2.41 0 4.687.65 6.83 1.951 2.143 1.301 3.884 3.17 5.223 5.61 1.286 2.439 1.929 5.312 1.929 8.618 0 2.33-.295 4.417-.884 6.26-.59 1.897-1.607 3.875-3.054 5.935-1.393 1.951-2.705 3.577-3.937 4.878-1.232 1.355-3.375 3.604-6.429 6.748l-3.616-6.016a27.551 27.551 0 0 0 6.67-5.854c1.928-2.276 2.893-4.363 2.893-6.26 0-.976-.215-1.762-.643-2.358-1.875 1.355-3.965 2.033-6.268 2.033-1.66 0-3.241-.515-4.741-1.545a10.708 10.708 0 0 1-3.697-3.902C.482 14.526 0 12.9 0 11.22c0-1.898.536-3.713 1.607-5.448a12.784 12.784 0 0 1 4.26-4.227C7.58.515 9.347 0 11.17 0Z"/></symbol><symbol id="brown-points" viewBox="0 0 32 4"><circle cx="16" cy="2" r="2"/><circle cx="2" cy="2" r="2"/><circle cx="30" cy="2" r="2"/></symbol><symbol id="house-icon" viewBox="0 0 12 11"><path d="M11.85 5.287a.51.51 0 0 0-.047-.763L6.44.146a.705.705 0 0 0-.872.01l-5.381 4.6a.506.506 0 0 0-.026.764l.135.13c.223.218.585.244.807.058l.402-.336v4.919c0 .301.263.546.586.546h2.097c.324 0 .586-.245.586-.546V6.85h2.675v3.44a.533.533 0 0 0 .55.546h2.223c.323 0 .585-.244.585-.546V5.442s.112.09.249.203c.136.112.424.022.641-.201l.153-.157Z"/></symbol><symbol id="gray-point" viewBox="0 0 12 12"><circle cx="6" cy="6" r="6"/></symbol><symbol id="github" viewBox="0 0 20 20"><path d="M10 0C4.507 0 0 4.507 0 10c0 4.687 3.289 8.945 7.656 10v-3.308a2.446 2.446 0 0 1-1.271-.033c-.591-.174-1.071-.568-1.428-1.168-.227-.383-.63-.8-1.05-.769l-.103-1.167c.909-.078 1.694.554 2.16 1.337.208.349.447.553.753.643.295.088.613.046.983-.085.093-.741.433-1.018.69-1.41-2.605-.388-3.643-1.77-4.055-2.86-.546-1.449-.253-3.258.712-4.402.019-.022.053-.08.04-.12-.443-1.338.096-2.444.116-2.561.511.15.594-.152 2.22.835l.28.169c.118.07.08.03.198.02A8.487 8.487 0 0 1 10 4.828c.71.009 1.42.11 2.127.302l.091.01c-.008-.002.025-.006.08-.039 2.03-1.23 1.957-.828 2.502-1.005.02.118.551 1.242.114 2.562-.06.182 1.76 1.848.751 4.522-.412 1.09-1.45 2.473-4.054 2.861.334.51.735.78.733 1.83V20C16.71 18.945 20 14.687 20 10c0-5.493-4.507-10-10-10Z"/></symbol><symbol id="telegram" viewBox="0 0 22 16"><path d="m8.672 10.524-.338 4.43c.483 0 .692-.194.943-.426l2.263-2.02 4.69 3.207c.861.447 1.467.211 1.7-.739l3.078-13.464V1.51c.274-1.187-.46-1.651-1.297-1.36L1.614 6.617C.379 7.065.397 7.707 1.404 8L6.03 9.342l10.746-6.276c.506-.313.966-.14.588.173l-8.693 7.285Z"/></symbol><symbol id="facebook" viewBox="0 0 11 22"><path d="M9.723 10.98H6.95V21.2H2.748V10.98H.75V7.39h1.998V5.065C2.748 3.403 3.533.8 6.988.8L10.1.813V4.3H7.842c-.37 0-.892.187-.892.98v2.113h3.14l-.367 3.588Z"/></symbol></defs></svg>