<svg aria-hidden="true" style="position: absolute" width="0" height="0" overflow="hidden" version="1.1" xmlns="http://www.w3.org/2000/svg" xmlns:xlink="http://www.w3.org/1999/xlink">
<defs>
<symbol id="icecream-logo" viewBox="0 0 199 50">
<ellipse cx="25" cy="25.5" rx="24" ry="24.5" fill="white"/>
<path d="M18.5144 0.877464C6.94289 4.38148 0 13.4919 0 25.0051C0 34.4159 4.82984 42.6253 12.779 46.73C16.9044 48.8324 17.5082 47.3307 13.6845 44.4273C10.9678 42.2248 10.4647 41.2237 10.4647 37.5194C10.4647 34.9164 9.86092 32.814 8.95533 32.0131C7.14414 30.5114 6.94289 26.6069 8.75408 25.2053C9.45844 24.6046 10.1628 22.6023 10.2634 20.8003C10.7665 14.1927 17.9107 7.9856 25.0548 7.9856C32.1989 7.9856 39.3431 14.1927 39.8462 20.8003C39.9468 22.6023 40.6511 24.6046 41.3555 25.2053C43.1667 26.6069 42.9654 30.5114 41.1543 32.0131C40.2487 32.814 39.6449 34.9164 39.6449 37.5194C39.6449 41.2237 39.1418 42.2248 36.425 44.4273C32.1989 47.7311 33.4064 48.9325 38.1356 46.0292C44.7766 41.9245 49.7071 33.0143 49.7071 25.1052C49.7071 9.28709 33.2051 -3.52758 18.5144 0.877464Z" fill="#D41443"/>
<path d="M19.8225 12.4908C18.0113 13.2917 16.502 14.2928 16.502 14.8935C16.502 15.9948 21.9355 17.9971 25.0548 17.9971C28.1741 17.9971 33.6076 15.9948 33.6076 14.8935C33.6076 13.6921 27.3691 10.989 24.8535 10.989C23.8473 11.0892 21.533 11.6898 19.8225 12.4908Z" fill="#D41443"/>
<path d="M71.6425 17.6968C70.1332 18.0972 69.8313 19.3987 69.8313 26.607V35.0166H73.3531H76.9754L76.6736 26.3066C76.3717 17.1962 75.9692 16.4954 71.6425 17.6968Z" fill="#D41443"/>
<path d="M83.4152 18.1974C80.0947 19.9995 78.8872 22.202 78.8872 26.5069C78.8872 32.4137 82.1071 35.2169 88.0438 34.8164C92.0686 34.5161 92.4711 34.2157 92.773 31.7129C93.0749 29.21 92.8736 29.0098 89.7543 29.21C86.5345 29.5104 86.4338 29.3101 86.4338 26.0063C86.4338 22.7026 86.6351 22.5023 89.5531 22.8027C91.968 23.0029 92.8736 22.6025 93.2761 21.1007C93.4773 20.0996 93.2761 18.698 92.6724 18.0973C91.2637 16.6957 86.0313 16.6957 83.4152 18.1974Z" fill="#D41443"/>
<path d="M95.3892 18.2973C95.0873 19.0982 94.9867 23.0027 95.188 27.1074L95.4898 34.5159H102.03C108.068 34.5159 108.571 34.3156 108.872 32.2132C109.174 30.3111 108.772 30.0107 105.653 30.0107C103.64 30.0107 102.03 29.5101 102.03 29.0096C102.03 28.4089 103.439 28.0084 105.049 28.0084C107.363 28.0084 108.068 27.608 108.068 26.0061C108.068 24.4043 107.363 24.0038 105.049 24.0038C103.439 24.0038 102.03 23.5033 102.03 23.0027C102.03 22.402 103.338 22.0015 104.948 22.0015C107.766 22.0015 109.677 19.799 108.47 17.8968C107.564 16.3951 95.9929 16.7956 95.3892 18.2973Z" fill="#D41443"/>
<path d="M115.614 17.9971C112.294 19.2986 110.986 21.6012 110.885 25.806C110.784 33.0143 113.702 35.5172 121.249 34.8164C124.167 34.6161 124.67 34.1156 124.67 32.0132C124.67 29.8106 124.268 29.5103 121.45 29.8106C119.035 30.0109 118.13 29.7105 117.627 28.1087C116.721 25.0051 118.633 22.5023 121.853 22.5023C123.765 22.5023 124.771 21.9016 124.972 20.6001C125.676 17.3964 120.545 15.8947 115.614 17.9971Z" fill="#D41443"/>
<path d="M127.991 17.5966C127.487 17.9971 127.186 22.1018 127.186 26.7071V35.1167L130.405 34.8164C132.921 34.6161 133.827 33.9153 134.33 32.0131L134.933 29.5103L135.738 32.2134C136.342 34.516 137.046 35.0166 139.663 35.0166C143.989 35.0166 144.492 34.3158 142.681 30.8118C141.574 28.6092 141.373 27.508 142.178 26.7071C143.486 25.4056 143.587 21.0005 142.379 19.0984C141.373 17.4965 129.299 16.195 127.991 17.5966ZM136.241 23.0028C136.241 24.1041 135.839 25.0051 135.235 25.0051C134.732 25.0051 134.229 24.1041 134.229 23.0028C134.229 21.9016 134.732 21.0005 135.235 21.0005C135.839 21.0005 136.241 21.9016 136.241 23.0028Z" fill="#D41443"/>
<path d="M146.002 17.6968C145.599 17.9971 145.298 22.1018 145.298 26.7071V35.0166H151.838C158.177 35.0166 158.378 34.9165 158.378 32.5137C158.378 30.4113 157.875 30.0109 155.36 30.0109C153.75 30.0109 152.341 29.5103 152.341 29.0097C152.341 28.409 153.448 28.0086 154.857 28.0086C156.668 28.0086 157.372 27.508 157.372 26.0063C157.372 24.5046 156.668 24.004 154.857 24.004C153.448 24.004 152.341 23.5034 152.341 23.0028C152.341 22.4022 153.75 22.0017 155.36 22.0017C157.875 22.0017 158.378 21.6012 158.378 19.4988C158.378 17.0961 158.077 16.996 152.542 16.996C149.322 16.996 146.304 17.2963 146.002 17.6968Z" fill="#D41443"/>
<path d="M166.328 17.5969C164.516 18.0974 159.888 31.4127 160.793 33.6152C161.598 35.6175 166.126 35.4173 167.334 33.3149C168.239 31.6129 168.34 31.6129 170.151 33.3149C172.466 35.3172 177.497 35.6175 177.497 33.7153C177.497 33.1146 176.49 29.11 175.182 25.0053C173.17 18.3978 172.566 17.4967 170.453 17.2965C169.044 17.2965 167.233 17.3966 166.328 17.5969ZM169.145 26.7073C168.843 27.7084 168.642 27.1078 168.642 25.5059C168.642 23.804 168.843 23.1032 169.145 23.7039C169.346 24.4047 169.346 25.8063 169.145 26.7073Z" fill="#D41443"/>
<path d="M180.817 17.6968C179.911 17.9971 179.509 20.8003 179.509 26.607V35.0166H182.427C184.942 35.0166 185.445 34.516 185.848 32.2134C186.25 29.6104 186.25 29.6104 187.055 31.7128C187.458 33.0143 188.464 34.0155 189.168 34.0155C189.973 34.0155 191.08 33.0143 191.583 31.7128C192.388 29.6104 192.489 29.6104 192.489 32.3135C192.59 34.8164 192.891 35.1167 195.709 34.8164L198.828 34.516L198.929 26.2065C199.13 18.4977 199.029 17.897 196.916 17.3964C193.696 16.5955 190.98 18.4977 190.074 22.2019L189.37 25.5057L188.263 22.0017C186.854 17.2963 184.741 16.0949 180.817 17.6968Z" fill="#D41443"/>
<path d="M14.0869 18.6978C13.785 19.0983 13.4832 20.3998 13.4832 21.7013C13.4832 24.0039 13.5838 24.0039 25.0546 24.0039C36.5255 24.0039 36.6261 24.0039 36.6261 21.7013C36.6261 18.2974 35.7205 17.8969 32.5006 19.4987C28.8783 21.4009 21.231 21.4009 17.6086 19.4987C15.9987 18.6978 14.4894 18.3975 14.0869 18.6978Z" fill="#D41443"/>
<path d="M11.1688 27.608C9.5589 29.31 12.2757 30.0108 20.1242 30.0108H28.5764V33.5148C28.5764 35.417 29.0795 37.0188 29.5826 37.0188C30.1863 37.0188 30.5888 35.5171 30.5888 33.6149C30.5888 30.3111 30.7901 30.1109 34.6137 29.8105C36.8274 29.6103 38.6386 29.0096 38.6386 28.5091C38.6386 27.4078 12.2757 26.5068 11.1688 27.608Z" fill="#D41443"/>
<path d="M13.4832 36.4181C13.4832 41.9244 15.395 43.0256 25.0546 43.0256C34.7143 43.0256 36.6261 41.9244 36.6261 36.4181C36.6261 34.0153 36.123 33.0142 35.1168 33.0142C34.2112 33.0142 33.6075 33.9152 33.6075 35.4169C33.6075 41.0233 25.9602 41.5239 24.8534 36.0176C24.3503 33.1143 24.0484 33.0142 18.9167 33.0142H13.4832V36.4181Z" fill="#D41443"/>
<path d="M19.722 47.7312C20.3257 50.9349 30.5892 50.6345 30.5892 47.531C30.5892 46.4297 29.2811 46.0292 24.9543 46.0292C20.2251 46.0292 19.4201 46.3296 19.722 47.7312Z" fill="#D41443"/>
</symbol>
<symbol id="burguer" viewBox="0 0 20 14">
<path d="M0 1H20"/>
<path d="M0 7H20"/>
<path d="M0 13H20"/>
</symbol>
<symbol id="close-button" viewBox="0 0 16 16">
<path d="M1.25925 1L14.7407 15"/>
<path d="M1 14.7407L15 1.25924"/>
</symbol>
<symbol id="point" viewBox="0 0 30 30">
<circle cx="15" cy="15" r="15"/>
</symbol>
<symbol id="right-arrow" viewBox="0 0 15 15">
<path d="M8.29289 2.29289C8.68342 1.90237 9.31658 1.90237 9.70711 2.29289L14.2071 6.79289C14.5976 7.18342 14.5976 7.81658 14.2071 8.20711L9.70711 12.7071C9.31658 13.0976 8.68342 13.0976 8.29289 12.7071C7.90237 12.3166 7.90237 11.6834 8.29289 11.2929L11 8.5H1.5C0.947715 8.5 0.5 8.05228 0.5 7.5C0.5 6.94772 0.947715 6.5 1.5 6.5H11L8.29289 3.70711C7.90237 3.31658 7.90237 2.68342 8.29289 2.29289Z"/>
</symbol>
<symbol id="three-points" viewBox="0 0 26 6">
<circle cx="13" cy="3" r="3"/>
<circle cx="3" cy="3" r="3"/>
<circle cx="23" cy="3" r="3"/>
</symbol>
<symbol id="milk" viewBox="0 0 33 50">
<path d="M3.64538 0.224613C3.09858 0.517582 2.78201 1.10352 2.78201 1.79688C2.7916 3.06641 3.10817 4.22852 3.74131 5.23438L4.01951 5.69336L3.49189 6.28907C2.89713 6.95313 2.75323 7.19727 2.48463 7.98829C2.26399 8.63282 2.2448 9.80469 2.43666 10.459C3.10817 12.7051 5.33375 14.0039 7.51137 13.4277C8.25003 13.2324 8.7009 12.9883 9.3916 12.4023L9.97678 11.9141L10.5236 12.1875C10.8306 12.3438 11.3486 12.5684 11.6843 12.6953L12.2791 12.9102V14.0039C12.2791 15.7324 12.634 16.7578 13.5454 17.6856C14.4567 18.6133 15.8861 19.0918 17.1236 18.877C18.0061 18.7207 18.8695 18.2813 19.4547 17.6856C20.366 16.7578 20.721 15.7324 20.721 14.0039V12.9102L21.3253 12.6953C21.6515 12.5684 22.1695 12.3438 22.4765 12.1875L23.0233 11.9141L23.6085 12.4023C24.2992 12.9883 24.75 13.2324 25.4887 13.4277C27.6663 14.0039 29.8919 12.7051 30.5634 10.459C30.7553 9.80469 30.7361 8.63282 30.5154 7.98829C30.2468 7.19727 30.1029 6.95313 29.5082 6.28907L28.9806 5.69336L29.2588 5.23438C29.8919 4.22852 30.2085 3.06641 30.2181 1.79688C30.2181 1.10352 29.9015 0.517582 29.3547 0.224613L28.9422 3.8147e-06H16.5H4.05788L3.64538 0.224613ZM26.6686 3.28125C26.6686 3.31055 26.3904 3.76954 26.0451 4.31641C25.0282 5.92774 25.0666 6.2793 26.4192 7.70508C26.9085 8.22266 27.3593 8.74024 27.4265 8.85743C27.791 9.58008 27.062 10.4785 26.2561 10.293C26.0643 10.2539 25.6422 9.91211 25.0282 9.30665C23.8003 8.09571 23.3782 7.95899 22.4381 8.4961C21.3541 9.1211 19.9727 9.75586 19.3012 9.94141C18.3515 10.2148 18.0253 10.4199 17.7759 10.9375C17.5745 11.3379 17.5553 11.5039 17.5553 13.0664C17.5553 14.9902 17.4785 15.3027 16.9317 15.5664C16.5384 15.7617 16.4617 15.7617 16.0683 15.5664C15.5215 15.3027 15.4448 14.9902 15.4448 13.0664C15.4448 11.5039 15.4256 11.3379 15.2338 10.9375C14.9747 10.4297 14.6486 10.2148 13.6989 9.94141C12.8739 9.70704 11.6556 9.16993 10.984 8.73047C10.3509 8.32032 9.79451 8.16407 9.35323 8.24219C9.06544 8.30079 8.77765 8.5254 8.01021 9.27735C7.37707 9.89258 6.9262 10.2539 6.73433 10.293C5.93811 10.4785 5.20904 9.57032 5.57358 8.85743C5.64073 8.74024 6.0916 8.22266 6.58085 7.70508C7.93346 6.2793 7.97184 5.92774 6.95497 4.31641C6.60963 3.76954 6.33143 3.31055 6.33143 3.28125C6.33143 3.24219 10.9073 3.22266 16.5 3.22266C22.0928 3.22266 26.6686 3.24219 26.6686 3.28125Z"/>
<path d="M0.757849 20.6348C0.268605 20.9668 0 21.4355 0 21.9531C0 22.3047 4.87326 48.3984 5.04593 48.9453C5.13227 49.248 5.48721 49.6094 5.86134 49.8047C6.21628 50 6.4657 50 16.5 50C26.5343 50 26.7837 50 27.1387 49.8047C27.5128 49.6094 27.8677 49.248 27.9541 48.9453C28.1267 48.3984 33 22.3047 33 21.9531C33 21.4355 32.7314 20.9668 32.2421 20.6348L31.916 20.4102H16.5H1.08401L0.757849 20.6348ZM29.2108 24.1895C29.1148 24.9707 28.5584 26.6699 28.1459 27.4414C26.141 31.1523 22.3421 33.4082 17.632 33.6719C14.073 33.877 11.0608 33.1543 8.53779 31.4941C7.07965 30.5371 5.86134 29.2285 4.99796 27.6855C4.51831 26.8359 3.88517 25.0098 3.78924 24.1895L3.72209 23.6328H16.5H29.2779L29.2108 24.1895ZM6.85901 34.248C10.9744 37.0215 17.1235 37.7539 22.3038 36.0742C24.0305 35.5176 25.7956 34.5801 27.273 33.4375C27.7047 33.0957 27.7334 33.0957 27.6855 33.3105C27.6567 33.4375 27.0907 36.4258 26.4288 39.9414C25.7669 43.457 25.2105 46.4355 25.1817 46.5527L25.1337 46.7773H16.5H7.86628L7.81831 46.5527C7.78953 46.4355 7.23314 43.457 6.57122 39.9414C5.9093 36.4258 5.34331 33.4375 5.31453 33.3105C5.26657 33.0957 5.29535 33.0957 5.72703 33.4375C5.97645 33.6328 6.49448 33.9941 6.85901 34.248Z"/>
</symbol>
<symbol id="fruits" viewBox="0 0 50 50">
<path d="M46.2908 33.454C44.2721 32.738 42.5691 32.9172 41.2248 33.4823C41.4507 32.1116 41.9596 30.6199 43.0522 29.6062C43.726 28.9813 43.7654 27.9286 43.1404 27.2549C42.5159 26.5813 41.463 26.5418 40.7891 27.1667C38.8686 28.9482 38.1241 31.4611 37.861 33.5433C37.361 33.3189 36.8093 33.1475 36.2081 33.0567L39.1615 17.698C39.2553 17.2104 39.1265 16.7067 38.8103 16.3241C38.4943 15.9414 38.024 15.7199 37.5275 15.7199H37.2086C37.3551 14.9379 37.429 14.1616 37.4231 13.4232C37.3984 10.3081 36.0118 7.96162 33.7142 7.14664C31.5115 6.36515 29.6679 6.6 28.2346 7.24983C28.4618 5.72525 29.0068 4.02576 30.2373 2.88435C30.911 2.25943 30.9504 1.20674 30.3255 0.532999C29.7009 -0.14057 28.6479 -0.180133 27.9741 0.444783C25.9112 2.35859 25.1383 5.07795 24.8775 7.29849C23.7292 6.75455 22.3091 6.47576 20.6455 6.78249C18.9359 4.32727 16.5628 3.19563 14.2558 3.74866C11.9879 4.29327 10.5714 5.49142 9.72311 6.81448C9.0822 5.40943 8.61065 3.68738 9.01739 2.07054C9.24146 1.17929 8.70072 0.275254 7.80964 0.051012C6.91806 -0.173735 6.01436 0.36751 5.79011 1.25876C5.10375 3.98738 5.93793 6.6894 6.92951 8.69327C5.3418 8.90775 3.62126 9.70842 2.16604 11.6088C1.2625 12.7889 0.957623 14.2621 1.2349 15.8268C0.964862 15.9278 0.721596 16.0966 0.533717 16.3241C0.217724 16.7067 0.0887676 17.2104 0.182539 17.698L6.13422 48.6503C6.28489 49.4337 6.97042 50 7.76823 50H31.5756C32.3734 50 33.059 49.4337 33.2096 48.6503L33.2682 48.3458C33.7169 48.6549 34.1989 48.9135 34.7162 49.1062C36.6948 49.8429 38.5389 49.5406 39.4721 49.2906C39.9657 49.4229 40.7144 49.5699 41.6031 49.5699C42.394 49.5699 43.2962 49.4534 44.2278 49.1062C47.916 47.7322 49.8755 43.1072 49.8465 39.453C49.8233 36.4781 48.494 34.2355 46.2908 33.454ZM35.4287 19.0476C34.6625 26.3998 28.4723 31.4062 19.8489 31.4062C11.2255 31.4062 5.03523 26.3997 4.26907 19.0476H35.4287ZM25.0502 11.7421C25.3381 12.2867 25.8876 12.6276 26.5041 12.6276C27.1206 12.6276 27.6699 12.2867 27.958 11.7421C28.0032 11.667 28.4113 11.0141 29.1598 10.5283C30.1428 9.89057 31.2686 9.81027 32.6016 10.283C33.9309 10.7544 34.0889 12.6545 34.0953 13.4495C34.1011 14.1737 33.9948 14.9519 33.7975 15.7197H22.6637C23.0319 13.8611 22.8108 11.8263 22.2123 9.98738C22.8007 10.0216 23.3433 10.201 23.848 10.5283C24.5968 11.0141 25.0046 11.6668 25.0502 11.7421ZM4.80846 13.6317C5.66823 12.5089 6.65577 11.9626 7.82782 11.9615H7.83102C8.72227 11.9615 9.41873 12.2859 9.49718 12.3239C10.0298 12.62 10.6672 12.5929 11.1825 12.2657C11.7 11.9367 11.9795 11.3414 11.9342 10.7298C11.9253 10.6094 11.7537 7.77138 15.0329 6.98418C16.4021 6.65488 17.5726 8.16162 18.0113 8.82492C19.2726 10.7318 19.9197 13.6806 19.2251 15.7195H4.61756C4.39752 15.0281 4.33826 14.246 4.80846 13.6317ZM9.14298 46.6722L5.84466 29.5197C6.06082 29.7274 6.28338 29.9301 6.5125 30.1274C9.96217 33.098 14.6985 34.734 19.8489 34.734C24.9992 34.734 29.7356 33.0982 33.1852 30.1274C33.2657 30.0583 33.3443 29.9874 33.4231 29.9168L32.7492 33.4219C32.7172 33.4328 32.6857 33.4428 32.6536 33.454C30.4504 34.2355 29.1211 36.4781 29.0977 39.453C29.0832 41.2724 29.5622 43.3322 30.5014 45.1116L30.2014 46.6722H9.14298ZM43.0662 45.9879C41.5921 46.5369 40.1273 46.0152 40.0728 45.9953C39.6827 45.8443 39.2627 45.8406 38.8731 45.9948C38.8583 46.0005 37.3729 46.5446 35.8782 45.9877C33.7883 45.2093 32.4054 41.9938 32.4253 39.4793C32.4312 38.7515 32.5731 37.0133 33.766 36.5902C34.312 36.3966 34.7995 36.3172 35.233 36.3172C36.9635 36.3172 37.8228 37.5857 38.0176 37.9175C38.3049 38.4643 38.8543 38.8067 39.4723 38.8067C40.0905 38.8067 40.6396 38.464 40.927 37.9175C41.1706 37.5027 42.4529 35.6239 45.1785 36.5902C46.3713 37.0131 46.5133 38.7515 46.5192 39.4793C46.5389 41.9939 45.1561 45.2094 43.0662 45.9879Z"/>
</symbol>
<symbol id="lollipop" viewBox="0 0 160 160">
<path d="M80 23c0,0 -15,-13 -32,-14 -18,0 -32,14 -33,33 -2,20 6,49 65,74 0,0 67,-23 65,-74 0,0 -2,-32 -33,-33 0,0 -11,-2 -32,14z" fill="none" stroke-width="10"/>
<line x1="73" y1="112" x2="73" y2= "159" fill="none" stroke-width="10"/>
<line x1="87" y1="112" x2="87" y2= "159" fill="none" stroke-width="10"/>
<path d="M20 25c0,0 14,-2 30,9 16,11 17,13 33,20 0,0 4,2 4,6 0,5 0,26 0,26 0,0 -1,4 7,4 0,0 6,2 7,-4 0,-6 0,-22 0,-22 0,0 1,-6 6,-6 6,0 20,0 38,-10" fill="none" stroke-width="10"/>
</symbol>
<symbol id="quotes" viewBox="0 0 54 40">
<path d="M40.0179 2.59234e-06C42.4286 2.80309e-06 44.7054 0.650413 46.8482 1.95122C48.9911 3.25204 50.7321 5.12196 52.0714 7.56098C53.3571 10 54 12.8726 54 16.1789C54 19.4851 53.1964 22.71 51.5893 25.8537C51.0536 26.9919 50.0893 28.4553 48.6964 30.2439C47.25 32.0325 45.9107 33.5772 44.6786 34.878L39.6161 40L36 33.9837C38.5179 32.4119 40.7411 30.4607 42.6696 28.1301C44.5982 25.8537 45.5625 23.7669 45.5625 21.8699C45.5625 20.8943 45.3482 20.1084 44.9196 19.5122C43.0446 20.8672 40.9554 21.5447 38.6518 21.5447C36.9911 21.5447 35.4107 21.0298 33.9107 20C32.3571 19.0244 31.125 17.7236 30.2143 16.0976C29.25 14.5257 28.7679 12.8997 28.7679 11.2195C28.7679 9.32249 29.3304 7.50678 30.4554 5.77236C31.5268 4.03794 32.9464 2.62873 34.7143 1.54472C36.4286 0.51491 38.1964 2.43311e-06 40.0179 2.59234e-06ZM11.1696 7.03482e-08C13.5804 2.81099e-07 15.8571 0.65041 18 1.95122C20.1429 3.25203 21.8839 5.12195 23.2232 7.56098C24.5089 10 25.1518 12.8726 25.1518 16.1789C25.1518 18.5095 24.8571 20.5962 24.2679 22.439C23.6786 24.336 22.6607 26.3144 21.2143 28.374C19.8214 30.3252 18.5089 31.9512 17.2768 33.252C16.0446 34.607 13.9018 36.8564 10.8482 40L7.23214 33.9837C9.75 32.4119 11.9732 30.4607 13.9018 28.1301C15.8304 25.8537 16.7946 23.7669 16.7946 21.8699C16.7946 20.8943 16.5804 20.1084 16.1518 19.5122C14.2768 20.8672 12.1875 21.5447 9.88393 21.5447C8.22321 21.5447 6.64285 21.0298 5.14285 20C3.58928 19.0244 2.35714 17.7236 1.44643 16.0976C0.482142 14.5257 -1.44552e-06 12.8997 -1.29863e-06 11.2195C-1.13278e-06 9.32249 0.535712 7.50677 1.60714 5.77236C2.67857 4.03794 4.09821 2.62873 5.86607 1.54472C7.58036 0.514908 9.34821 -8.88862e-08 11.1696 7.03482e-08Z"/>
</symbol>
<symbol id="brown-points" viewBox="0 0 32 4">
<circle cx="16" cy="2" r="2"/>
<circle cx="2" cy="2" r="2"/>
<circle cx="30" cy="2" r="2"/>
</symbol>
<symbol id="house-icon" viewBox="0 0 12 11">
<path d="M11.8497 5.28727C12.0672 5.06411 12.0462 4.72207 11.8028 4.5235L6.43981 0.146237C6.19638 -0.0523315 5.80611 -0.0481718 5.56781 0.155614L0.186634 4.75688C-0.0516656 4.96066 -0.0633615 5.30227 0.160739 5.51955L0.295652 5.65062C0.519479 5.86791 0.88127 5.89381 1.10322 5.70831L1.50538 5.37236V10.2907C1.50538 10.5924 1.7675 10.8367 2.09076 10.8367H4.18836C4.51162 10.8367 4.77374 10.5924 4.77374 10.2907V6.84984H7.44925V10.2907C7.4446 10.5922 7.6759 10.8365 7.99916 10.8365H10.2221C10.5453 10.8365 10.8075 10.5922 10.8075 10.2905V5.44161C10.8075 5.44161 10.9186 5.5324 11.0556 5.64474C11.1924 5.75687 11.4797 5.66697 11.6972 5.44358L11.8497 5.28727Z"/>
</symbol>
<symbol id="gray-point" viewBox="0 0 12 12">
<circle cx="6" cy="6" r="6"/>
</symbol>
<symbol id="github" viewBox="0 0 20 20">
<path d="M10 0C4.50745 0 0 4.50745 0 10C0 14.687 3.28888 18.9447 7.65625 20V16.6916C7.22351 16.7863 6.82526 16.7891 6.38474 16.6592C5.79376 16.4848 5.31357 16.0912 4.95712 15.4909C4.72992 15.1076 4.32724 14.6919 3.90717 14.7224L3.80417 13.5551C4.71252 13.4773 5.49835 14.1086 5.96481 14.8923C6.17203 15.2408 6.41052 15.4451 6.71661 15.5354C7.01248 15.6226 7.33017 15.5807 7.70035 15.45C7.79327 14.7089 8.13278 14.4315 8.38928 14.0408V14.0402C5.78461 13.6517 4.74655 12.2699 4.33456 11.1792C3.7886 9.73099 4.08157 7.92175 5.047 6.77841C5.06577 6.75613 5.09964 6.69785 5.08652 6.6571C4.64386 5.31998 5.18326 4.21387 5.20309 4.09653C5.71396 4.24759 5.79697 3.94455 7.42218 4.93195L7.70309 5.10071C7.82059 5.17075 7.78366 5.13077 7.90115 5.12192C8.57971 4.93759 9.29504 4.83582 9.99985 4.82666C10.71 4.83582 11.4207 4.93759 12.1274 5.12939L12.2183 5.13855C12.2104 5.13733 12.243 5.13275 12.2978 5.1001C14.328 3.87039 14.2551 4.27231 14.7995 4.09531C14.8192 4.2128 15.3514 5.33691 14.9135 6.6571C14.8544 6.83899 16.6736 8.50479 15.6653 11.1787C15.2533 12.2699 14.2154 13.6517 11.6107 14.0402V14.0408C11.9446 14.5497 12.3457 14.8204 12.3436 15.8702V20C16.7111 18.9447 19.9998 14.687 19.9998 10C20 4.50745 15.4926 0 10 0V0Z"/>
</symbol>
<symbol id="telegram" viewBox="0 0 22 16">
<path d="M8.67154 10.5238L8.33408 14.9538C8.8169 14.9538 9.026 14.7602 9.27676 14.5278L11.5404 12.5088L16.2308 15.7146C17.091 16.162 17.6971 15.9264 17.9291 14.976L21.0079 1.51162L21.0087 1.51083C21.2816 0.324011 20.5489 -0.140087 19.7108 0.151065L1.61382 6.61749C0.378742 7.06493 0.397443 7.70753 1.40387 7.99868L6.03053 9.34178L16.7773 3.06576C17.2831 2.75319 17.743 2.92613 17.3647 3.2387L8.67154 10.5238Z"/>
</symbol>
<symbol id="facebook" viewBox="0 0 11 22">
<path d="M9.72348 10.9804H6.95018V21.2001H2.74839V10.9804H0.75V7.38881H2.74839V5.06464C2.74839 3.40261 3.53328 0.800049 6.98758 0.800049L10.1 0.813146V4.2994H7.84174C7.47132 4.2994 6.95046 4.48555 6.95046 5.27839V7.39216H10.0906L9.72348 10.9804Z"/>
</symbol>
</defs>
</svg>
